<?xml version="1.0" encoding="UTF-8"?>
<svg xmlns="http://www.w3.org/2000/svg" id="Calque_1" data-name="Calque 1" viewBox="0 0 512 305"><defs><style>.cls-1{fill:#000100;}.cls-2{fill:#1d1d1b;}</style></defs><polygon class="cls-1" points="199.02 10.53 139.48 10.53 20.39 129.61 20.39 177.82 139.48 177.82 139.48 237.36 199.02 237.36 199.02 129.61 79.94 129.61 199.02 10.53"/><polygon class="cls-1" points="224.54 70.07 284.08 10.53 224.54 10.53 224.54 70.07"/><polygon class="cls-1" points="343.62 70.07 343.62 10.53 284.08 10.53 284.08 70.07 224.54 129.61 224.54 189.16 284.08 189.16 284.08 129.61 343.62 70.07"/><polygon class="cls-1" points="343.62 129.61 284.08 189.16 343.62 189.16 343.62 129.61"/><rect class="cls-2" x="224.54" y="237.36" width="4.7" height="59.2"/><path d="M261.63,249l-3.1,25.25h9.77l-.75,6.11h-17L254.39,249Z"/><path d="M292,274.44H280.1l-3,5.92h-7.8L285.88,249h6.68L301,280.36h-7.42Zm-1.32-5.55-2.54-11.05-5.26,11.05Z"/><path d="M314.42,249l-2.07,17.11c-.06.51-.12.92-.16,1.25a10.87,10.87,0,0,0-.07,1.48,9.67,9.67,0,0,0,.23,2.05,4,4,0,0,0,1.13,2,5.06,5.06,0,0,0,1.67,1,6.62,6.62,0,0,0,2.47.4,7.36,7.36,0,0,0,2.89-.47,5.35,5.35,0,0,0,1.71-1.08,4.81,4.81,0,0,0,.94-1.31,8.61,8.61,0,0,0,.61-1.58,12.46,12.46,0,0,0,.36-1.62c.07-.53.14-1,.21-1.46L326.5,249h7.24l-2.26,18.24c-.12.94-.26,1.88-.4,2.82a22.34,22.34,0,0,1-.58,2.75,12.47,12.47,0,0,1-1,2.57,10.7,10.7,0,0,1-1.69,2.3,9.16,9.16,0,0,1-2.56,1.9,12.93,12.93,0,0,1-2.8,1,14.87,14.87,0,0,1-2.68.4c-.85.05-1.6.07-2.26.07s-1.6,0-2.46-.09a12.9,12.9,0,0,1-2.59-.45,13.17,13.17,0,0,1-2.54-1,9.37,9.37,0,0,1-2.32-1.72,8.3,8.3,0,0,1-2.14-3.24,11.74,11.74,0,0,1-.64-4c0-.34,0-.74.05-1.17l.09-1.34q0-.69.12-1.32t.12-1.11l2-16.64Z"/><path d="M355.88,256.67a8.17,8.17,0,0,0-2.84-1.81,7.72,7.72,0,0,0-2.42-.45,9.74,9.74,0,0,0-1.51.14,2.92,2.92,0,0,0-1.46.66,2.53,2.53,0,0,0-.8,1,3.08,3.08,0,0,0-.28,1.26,2.66,2.66,0,0,0,.28,1.23,2.81,2.81,0,0,0,.8.89,7.76,7.76,0,0,0,1.2.78q.69.34,1.86.87l1.83.84a17.61,17.61,0,0,1,2.17,1.2,9.67,9.67,0,0,1,2,1.81,7.44,7.44,0,0,1,1.22,2.23,8.62,8.62,0,0,1,.38,2.66,11.45,11.45,0,0,1-.9,4.58,10.69,10.69,0,0,1-2.25,3.46,9.49,9.49,0,0,1-4.26,2.47,19.25,19.25,0,0,1-4.72.58,16.72,16.72,0,0,1-3.2-.28,10.88,10.88,0,0,1-3.05-1.13,15.22,15.22,0,0,1-2.26-1.53,16.74,16.74,0,0,1-1.93-1.8l4.05-5.18a12.24,12.24,0,0,0,1.22,1.34,10.28,10.28,0,0,0,1.41,1.16,7,7,0,0,0,1.69.75,6.82,6.82,0,0,0,2,.28,8.53,8.53,0,0,0,1.81-.23,4.18,4.18,0,0,0,1.66-.76,3.49,3.49,0,0,0,1.32-2.91,2.56,2.56,0,0,0-.31-1.36,3.53,3.53,0,0,0-.58-.8,4.69,4.69,0,0,0-.73-.54,11.38,11.38,0,0,0-1.76-.87l-1.84-.76a4.56,4.56,0,0,1-.7-.28c-.35-.16-.73-.35-1.15-.59a11.08,11.08,0,0,1-1.32-.84,10,10,0,0,1-1.25-1.06,6.92,6.92,0,0,1-1.59-2.49,8.18,8.18,0,0,1-.47-2.82,9.73,9.73,0,0,1,.84-4.21,10.43,10.43,0,0,1,2-2.89,9,9,0,0,1,4.18-2.42,18.37,18.37,0,0,1,4.28-.54,16.93,16.93,0,0,1,4.3.59,13.47,13.47,0,0,1,4.77,2.51Z"/><path d="M382,274.44H370.17l-3,5.92h-7.8L376,249h6.68L391,280.36h-7.42Zm-1.32-5.55-2.54-11.05-5.26,11.05Z"/><path d="M394.43,280.36l3.9-31.36h6.3l14.43,20.41L421.6,249h7.24L425,280.36h-6.3l-14.52-20.5-2.49,20.5Z"/><path d="M431.85,280.36l3.9-31.36h6.3l14.43,20.41L459,249h7.24l-3.86,31.36h-6.3l-14.52-20.5-2.5,20.5Z"/><path d="M489.67,255.11H479.42l-.75,6.07h9.87l-.75,6.11h-9.88l-.84,7H487.5l-.75,6.11H469.26L473.12,249h17.3Z"/></svg>